<svg width="17" height="17" viewBox="0 0 17 17" fill="none" xmlns="http://www.w3.org/2000/svg">
<path d="M11.3334 8.50001C11.3334 8.31214 11.2587 8.13198 11.1259 7.99914C10.9931 7.8663 10.8129 7.79167 10.625 7.79167L2.83337 7.79167C2.64551 7.79167 2.46534 7.8663 2.33251 7.99914C2.19967 8.13198 2.12504 8.31214 2.12504 8.5C2.12504 8.68787 2.19967 8.86803 2.33251 9.00087C2.46534 9.13371 2.64551 9.20834 2.83337 9.20834L10.625 9.20834C10.8129 9.20834 10.9931 9.13371 11.1259 9.00087C11.2587 8.86803 11.3334 8.68787 11.3334 8.50001Z" fill="black"/>
<path d="M14.1666 13.4583C14.1666 13.2705 14.092 13.0903 13.9592 12.9575C13.8263 12.8246 13.6462 12.75 13.4583 12.75L2.83329 12.75C2.64543 12.75 2.46526 12.8246 2.33242 12.9575C2.19958 13.0903 2.12496 13.2705 2.12496 13.4583C2.12496 13.6462 2.19958 13.8264 2.33242 13.9592C2.46526 14.092 2.64543 14.1667 2.83329 14.1667L13.4583 14.1667C13.6462 14.1667 13.8263 14.092 13.9592 13.9592C14.092 13.8264 14.1666 13.6462 14.1666 13.4583Z" fill="black"/>
<path d="M8.5 3.54166C8.5 3.3538 8.42537 3.17363 8.29253 3.04079C8.1597 2.90796 7.97953 2.83333 7.79167 2.83333L2.83333 2.83333C2.64547 2.83333 2.4653 2.90796 2.33247 3.04079C2.19963 3.17363 2.125 3.3538 2.125 3.54166C2.125 3.72952 2.19963 3.90969 2.33247 4.04253C2.4653 4.17537 2.64547 4.24999 2.83333 4.24999L7.79167 4.24999C7.97953 4.24999 8.1597 4.17537 8.29253 4.04253C8.42537 3.90969 8.5 3.72952 8.5 3.54166Z" fill="black"/>
</svg>
