<svg width="24" height="20" viewBox="0 0 24 20" fill="#274571" xmlns="http://www.w3.org/2000/svg">
<path d="M21.72 6.66666C20.9071 6.97256 20.0283 7.06022 19.171 6.92094C18.3137 6.78166 17.5078 6.42029 16.8335 5.87279C16.1592 5.32529 15.6401 4.61075 15.3278 3.8003C15.0155 2.98984 14.9209 2.11172 15.0534 1.25333C12.7823 0.589525 10.3577 0.676155 8.13979 1.50035C5.9219 2.32454 4.0291 3.84231 2.74267 5.82812C1.45624 7.81392 0.844827 10.1618 0.999288 12.5228C1.15375 14.8839 2.06584 17.1321 3.60003 18.9333L3.80003 19.1667H20.2L20.4 18.9333C21.8217 17.2609 22.7088 15.2003 22.9465 13.0181C23.1842 10.8359 22.7616 8.63267 21.7334 6.69333L21.72 6.66666ZM11.3334 2.19333H12C12.2467 2.19333 12.4667 2.19333 12.6667 2.22666V4.56H11.3334V2.19333ZM4.66669 12.6067H2.37336C2.37336 12.3467 2.34003 12.0933 2.34003 11.8267V11.2733H4.66669V12.6067ZM6.34003 7.16666L4.66669 5.52666C4.96224 5.18948 5.28078 4.87317 5.62003 4.58L7.26003 6.22L6.34003 7.16666ZM13.42 13.2933C13.1613 13.5545 12.8355 13.7392 12.4786 13.8273C12.1217 13.9154 11.7474 13.9034 11.3969 13.7927C11.0464 13.682 10.7331 13.4767 10.4916 13.1996C10.2501 12.9224 10.0896 12.5841 10.0278 12.2217C9.96603 11.8593 10.0053 11.4869 10.1414 11.1454C10.2774 10.8039 10.505 10.5065 10.7991 10.2858C11.0931 10.0652 11.4423 9.92988 11.8082 9.89475C12.1742 9.85961 12.5427 9.92601 12.8734 10.0867L16.8134 6.21333L17.7534 7.15333L13.8067 11.0267C13.9784 11.4002 14.0309 11.8175 13.9569 12.2219C13.883 12.6263 13.6862 12.9981 13.3934 13.2867L13.42 13.2933ZM21.6534 12.6267H19.28V11.2933H21.6334V11.8467C21.6334 12.0333 21.6467 12.3467 21.6267 12.6067L21.6534 12.6267Z" fill="#274571"/>
</svg>
