<svg width="24" height="24" viewBox="0 0 24 24" fill="none" xmlns="http://www.w3.org/2000/svg">
<g clip-path="url(#clip0)">
<path d="M22.6754 24.0001C23.4068 24.0001 24 23.407 24 22.6755V1.32459C24 0.592969 23.4068 0 22.6754 0H1.32459C0.592875 0 0 0.592969 0 1.32459V22.6755C0 23.407 0.592875 24.0001 1.32459 24.0001H22.6754Z" fill="#395185"/>
<path d="M16.5596 24.0001V14.706H19.6793L20.1464 11.0839H16.5596V8.7713C16.5596 7.72261 16.8509 7.00796 18.3547 7.00796L20.2728 7.00711V3.76758C19.9409 3.72343 18.8024 3.6248 17.4779 3.6248C14.7125 3.6248 12.8193 5.31277 12.8193 8.41271V11.0839H9.69159V14.706H12.8193V24.0001H16.5596Z" fill="white"/>
</g>
<defs>
<clipPath id="clip0">
<rect width="24" height="24" fill="white"/>
</clipPath>
</defs>
</svg>
