<svg width="22" height="17" viewBox="0 0 22 17" fill="none" xmlns="http://www.w3.org/2000/svg">
<path d="M11 17C10.8684 17.0007 10.7379 16.9755 10.6161 16.9258C10.4943 16.876 10.3834 16.8027 10.29 16.71L2.51999 8.92999C1.54536 7.94516 0.998657 6.61555 0.998657 5.22999C0.998657 3.84442 1.54536 2.51481 2.51999 1.52999C3.50226 0.550497 4.83283 0.000457764 6.21999 0.000457764C7.60716 0.000457764 8.93773 0.550497 9.91999 1.52999L11 2.60999L12.08 1.52999C13.0623 0.550497 14.3928 0.000457764 15.78 0.000457764C17.1672 0.000457764 18.4977 0.550497 19.48 1.52999C20.4546 2.51481 21.0013 3.84442 21.0013 5.22999C21.0013 6.61555 20.4546 7.94516 19.48 8.92999L11.71 16.71C11.6166 16.8027 11.5057 16.876 11.3839 16.9258C11.2621 16.9755 11.1316 17.0007 11 17Z" fill="#274571"/>
</svg>
