<svg width="28" height="28" viewBox="0 0 28 28" fill="none" xmlns="http://www.w3.org/2000/svg">
<path d="M25.4398 11.7151H24.5V11.6667H14V16.3333H20.5934C19.6315 19.0499 17.0468 21 14 21C10.1343 21 7 17.8657 7 14C7 10.1342 10.1343 7 14 7C15.7844 7 17.4078 7.67317 18.6439 8.77275L21.9438 5.47283C19.8602 3.53092 17.073 2.33333 14 2.33333C7.55709 2.33333 2.33334 7.55708 2.33334 14C2.33334 20.4429 7.55709 25.6667 14 25.6667C20.4429 25.6667 25.6667 20.4429 25.6667 14C25.6667 13.2177 25.5862 12.4542 25.4398 11.7151Z" fill="#FFC107"/>
<path d="M3.67844 8.56975L7.51152 11.3808C8.54869 8.813 11.0605 7 13.9999 7C15.7844 7 17.4078 7.67317 18.6439 8.77275L21.9438 5.47283C19.8601 3.53092 17.0729 2.33333 13.9999 2.33333C9.51877 2.33333 5.6326 4.86325 3.67844 8.56975Z" fill="#FF3D00"/>
<path d="M14.0001 25.6667C17.0136 25.6667 19.7517 24.5134 21.822 22.638L18.2112 19.5825C17.0005 20.5032 15.5211 21.0012 14.0001 21C10.9656 21 8.38899 19.0651 7.41832 16.3649L3.61382 19.2961C5.54466 23.0744 9.46582 25.6667 14.0001 25.6667Z" fill="#4CAF50"/>
<path d="M25.4398 11.7151H24.5V11.6667H14V16.3333H20.5934C20.1333 17.6262 19.3045 18.756 18.2093 19.5831L18.2111 19.5819L21.8219 22.6374C21.5664 22.8696 25.6667 19.8333 25.6667 14C25.6667 13.2177 25.5862 12.4542 25.4398 11.7151Z" fill="#1976D2"/>
</svg>
