<svg width="24" height="24" viewBox="0 0 24 24" fill="none" xmlns="http://www.w3.org/2000/svg">
<path d="M12 21C16.9706 21 21 16.9706 21 12C21 7.02944 16.9706 3 12 3C7.02944 3 3 7.02944 3 12C3 16.9706 7.02944 21 12 21Z" stroke="#274571" stroke-width="2" stroke-linecap="round" stroke-linejoin="round"/>
<path d="M9 10H9.01" stroke="#274571" stroke-width="2" stroke-linecap="round" stroke-linejoin="round"/>
<path d="M15 10H15.01" stroke="#274571" stroke-width="2" stroke-linecap="round" stroke-linejoin="round"/>
<path d="M9.5 15C9.82588 15.3326 10.2148 15.5968 10.6441 15.7772C11.0734 15.9576 11.5344 16.0505 12 16.0505C12.4656 16.0505 12.9266 15.9576 13.3559 15.7772C13.7852 15.5968 14.1741 15.3326 14.5 15" stroke="#274571" stroke-width="2" stroke-linecap="round" stroke-linejoin="round"/>
<path d="M12 3C11.4696 3 10.9609 3.21071 10.5858 3.58579C10.2107 3.96086 10 4.46957 10 5C10 5.53043 10.2107 6.03914 10.5858 6.41421C10.9609 6.78929 11.4696 7 12 7" stroke="#274571" stroke-width="2" stroke-linecap="round" stroke-linejoin="round"/>
</svg>
