<svg width="197" height="30" viewBox="0 0 197 30" fill="none" xmlns="http://www.w3.org/2000/svg">
<path d="M2.98023e-08 26.36C0.72 26.3333 1.26667 26.2533 1.64 26.12C2.01333 25.96 2.30667 25.64 2.52 25.16C2.73333 24.68 2.84 23.92 2.84 22.88V7.56C2.84 6.06667 2.89333 4.86667 3 3.96L2.98023e-08 4.08V0.999998H11.48V3.64C10.76 3.66667 10.2133 3.76 9.84 3.92C9.46667 4.05333 9.17333 4.36 8.96 4.84C8.74667 5.32 8.64 6.08 8.64 7.12V22.44C8.64 23.88 8.58667 25.0533 8.48 25.96H13.84C15.44 25.9333 16.68 25.3733 17.56 24.28C18.44 23.16 18.88 21.5333 18.88 19.4H21.56L21.32 29H2.98023e-08V26.36ZM65.4606 29.64C62.2606 29.64 59.6206 28.9333 57.5406 27.52C55.4606 26.1067 53.9406 24.2933 52.9806 22.08C52.0206 19.8667 51.5406 17.5067 51.5406 15C51.5406 12.6267 52.074 10.32 53.1406 8.08C54.2073 5.84 55.794 4 57.9006 2.56C60.034 1.09333 62.594 0.359999 65.5806 0.359999C68.6473 0.359999 71.2206 1.09333 73.3006 2.56C75.4073 4 76.9673 5.84 77.9806 8.08C78.994 10.32 79.5006 12.6267 79.5006 15C79.5006 17.32 78.9673 19.6133 77.9006 21.88C76.834 24.12 75.234 25.9733 73.1006 27.44C70.994 28.9067 68.4473 29.64 65.4606 29.64ZM65.8606 26.72C67.594 26.72 69.0073 26.1733 70.1006 25.08C71.194 23.9867 71.9806 22.6 72.4606 20.92C72.9406 19.24 73.1806 17.4933 73.1806 15.68C73.1806 11.8933 72.514 8.88 71.1806 6.64C69.8473 4.4 67.874 3.28 65.2606 3.28C63.5006 3.28 62.0606 3.84 60.9406 4.96C59.8206 6.08 59.0206 7.49333 58.5406 9.2C58.0606 10.9067 57.8206 12.68 57.8206 14.52C57.8206 16.3867 58.0873 18.2533 58.6206 20.12C59.154 21.9867 60.0206 23.56 61.2206 24.84C62.4473 26.0933 63.994 26.72 65.8606 26.72ZM123.923 29.64C121.096 29.64 118.656 29.0133 116.603 27.76C114.576 26.5067 113.016 24.8133 111.923 22.68C110.856 20.52 110.323 18.0933 110.323 15.4C110.323 12.8667 110.843 10.4533 111.883 8.16C112.949 5.84 114.523 3.96 116.603 2.52C118.709 1.08 121.243 0.359999 124.203 0.359999C125.349 0.359999 126.643 0.533333 128.083 0.88C129.549 1.22667 130.789 1.70666 131.803 2.32H131.843L131.683 0.639998H134.763V9.96H132.163C131.816 7.8 130.976 6.14667 129.643 5C128.309 3.85333 126.669 3.26667 124.723 3.24C122.963 3.24 121.469 3.77333 120.243 4.84C119.016 5.88 118.096 7.26667 117.483 9C116.869 10.7333 116.563 12.6 116.563 14.6C116.563 18.1467 117.296 21.0133 118.763 23.2C120.229 25.3867 122.283 26.48 124.923 26.48C125.776 26.48 126.749 26.3867 127.843 26.2C128.963 26.0133 129.869 25.7467 130.563 25.4V21.68C130.563 20.1867 130.616 18.9867 130.723 18.08C130.029 18.1333 129.376 18.16 128.763 18.16L127.723 18.2V15.12H138.363V17.76C137.696 17.7867 137.176 17.88 136.803 18.04C136.429 18.2 136.149 18.5333 135.963 19.04C135.776 19.52 135.683 20.2533 135.683 21.24V27.64H134.723C134.109 27.64 133.496 27.7067 132.883 27.84C132.296 27.9733 131.536 28.1867 130.603 28.48C129.216 28.88 128.056 29.1733 127.123 29.36C126.189 29.5467 125.123 29.64 123.923 29.64ZM182.359 29.64C179.159 29.64 176.519 28.9333 174.439 27.52C172.359 26.1067 170.839 24.2933 169.879 22.08C168.919 19.8667 168.439 17.5067 168.439 15C168.439 12.6267 168.972 10.32 170.039 8.08C171.106 5.84 172.692 4 174.799 2.56C176.932 1.09333 179.492 0.359999 182.479 0.359999C185.546 0.359999 188.119 1.09333 190.199 2.56C192.306 4 193.866 5.84 194.879 8.08C195.892 10.32 196.399 12.6267 196.399 15C196.399 17.32 195.866 19.6133 194.799 21.88C193.732 24.12 192.132 25.9733 189.999 27.44C187.892 28.9067 185.346 29.64 182.359 29.64ZM182.759 26.72C184.492 26.72 185.906 26.1733 186.999 25.08C188.092 23.9867 188.879 22.6 189.359 20.92C189.839 19.24 190.079 17.4933 190.079 15.68C190.079 11.8933 189.412 8.88 188.079 6.64C186.746 4.4 184.772 3.28 182.159 3.28C180.399 3.28 178.959 3.84 177.839 4.96C176.719 6.08 175.919 7.49333 175.439 9.2C174.959 10.9067 174.719 12.68 174.719 14.52C174.719 16.3867 174.986 18.2533 175.519 20.12C176.052 21.9867 176.919 23.56 178.119 24.84C179.346 26.0933 180.892 26.72 182.759 26.72Z" fill="#255DAD"/>
</svg>
