<svg width="19" height="18" viewBox="0 0 19 18" fill="none" xmlns="http://www.w3.org/2000/svg">
<path d="M6.83337 0.333313H11.1667V4.66665H6.83337V0.333313ZM0.333374 13.3333H4.66671V17.6666H0.333374V13.3333ZM0.333374 6.83331H4.66671V11.1666H0.333374V6.83331ZM0.333374 0.333313H4.66671V4.66665H0.333374V0.333313ZM13.3334 0.333313H17.6667V4.66665H13.3334V0.333313ZM7.91671 15.3483V17.6666H10.1917L16.67 11.1991L14.3734 8.90248L7.91671 15.3483ZM11.1667 9.03248V6.83331H6.83337V11.1666H9.03254L11.1667 9.03248ZM18.5875 8.52331L17.06 6.99581C16.8434 6.77915 16.5075 6.77915 16.2909 6.99581L15.1425 8.14415L17.4392 10.4408L18.5875 9.29248C18.8042 9.07581 18.8042 8.73998 18.5875 8.52331Z" fill="#274571"/>
</svg>
