<svg width="18" height="18" viewBox="0 0 18 18" fill="none" xmlns="http://www.w3.org/2000/svg">
<path d="M8.16021 1.299C8.55421 0.689552 9.44579 0.689551 9.83979 1.299L12.2112 4.96717C12.3462 5.17589 12.554 5.32688 12.7942 5.39072L17.0156 6.51256C17.717 6.69894 17.9925 7.54688 17.5347 8.10993L14.7788 11.4988C14.622 11.6917 14.5426 11.936 14.5562 12.1841L14.7937 16.5456C14.8332 17.2703 14.1119 17.7943 13.4349 17.5329L9.36029 15.9592C9.12844 15.8696 8.87156 15.8696 8.63971 15.9592L4.56508 17.5329C3.88811 17.7943 3.16681 17.2703 3.20628 16.5456L3.44384 12.1841C3.45736 11.936 3.37798 11.6917 3.22118 11.4988L0.465348 8.10993C0.00748205 7.54688 0.282992 6.69894 0.984365 6.51256L5.20582 5.39072C5.44602 5.32688 5.65384 5.17589 5.78878 4.96717L8.16021 1.299Z" fill="#274571"/>
</svg>
