<svg width="22" height="18" viewBox="0 0 22 18" fill="none" xmlns="http://www.w3.org/2000/svg">
<g clip-path="url(#clip0)">
<path d="M7.14944 12.375C7.06729 12.375 6.98513 12.3873 6.90676 12.4133C6.46126 12.5613 5.99273 12.6562 5.49944 12.6562C5.00616 12.6562 4.53763 12.5613 4.09179 12.4133C4.01341 12.3873 3.9316 12.375 3.84944 12.375C1.71613 12.375 -0.0118986 14.1497 -0.000554819 16.3343C0.00425768 17.2575 0.746414 18 1.64944 18H9.34944C10.2525 18 10.9946 17.2575 10.9994 16.3343C11.0108 14.1497 9.28276 12.375 7.14944 12.375ZM5.49944 11.25C7.32201 11.25 8.79944 9.73898 8.79944 7.875C8.79944 6.01102 7.32201 4.5 5.49944 4.5C3.67688 4.5 2.19945 6.01102 2.19945 7.875C2.19945 9.73898 3.67688 11.25 5.49944 11.25ZM20.3494 0H7.14944C6.23954 0 5.49944 0.782227 5.49944 1.7434V3.375C6.30451 3.375 7.04976 3.61336 7.69944 4.00078V2.25H19.7994V12.375H17.5994V10.125H13.1994V12.375H10.5787C11.2353 12.9618 11.7172 13.7366 11.943 14.625H20.3494C21.2593 14.625 21.9994 13.8428 21.9994 12.8816V1.7434C21.9994 0.782227 21.2593 0 20.3494 0Z" fill="#274571"/>
</g>
<defs>
<clipPath id="clip0">
<rect width="22" height="18" fill="white"/>
</clipPath>
</defs>
</svg>
